<svg width="100%" viewBox="0 0 680 300" xmlns="http://www.w3.org/2000/svg">
  <!-- Background -->
  <rect width="680" height="300" fill="#1e293b"/>
  <!-- LEFT: Dense matrix -->
  <text font-family="'Inter', 'Segoe UI', sans-serif" font-size="13" font-weight="500" fill="#f8fafc" x="160" y="30" text-anchor="middle">Dense weight matrix</text>
  <text font-family="'Inter', 'Segoe UI', sans-serif" font-size="11" fill="#94a3b8" x="160" y="46" text-anchor="middle">After training, before pruning</text>

  <!-- 8x5 dense grid, all filled -->
  <g>
    <!-- Row 1 -->
    <rect x="40" y="56" width="30" height="30" rx="2" fill="#6366f1" stroke="#1e293b" stroke-width="1"/>
    <rect x="72" y="56" width="30" height="30" rx="2" fill="#4f46e5" stroke="#1e293b" stroke-width="1"/>
    <rect x="104" y="56" width="30" height="30" rx="2" fill="#818cf8" stroke="#1e293b" stroke-width="1"/>
    <rect x="136" y="56" width="30" height="30" rx="2" fill="#6366f1" stroke="#1e293b" stroke-width="1"/>
    <rect x="168" y="56" width="30" height="30" rx="2" fill="#4f46e5" stroke="#1e293b" stroke-width="1"/>
    <rect x="200" y="56" width="30" height="30" rx="2" fill="#818cf8" stroke="#1e293b" stroke-width="1"/>
    <rect x="232" y="56" width="30" height="30" rx="2" fill="#6366f1" stroke="#1e293b" stroke-width="1"/>
    <rect x="264" y="56" width="30" height="30" rx="2" fill="#4f46e5" stroke="#1e293b" stroke-width="1"/>
    <!-- Row 2 -->
    <rect x="40" y="88" width="30" height="30" rx="2" fill="#818cf8" stroke="#1e293b" stroke-width="1"/>
    <rect x="72" y="88" width="30" height="30" rx="2" fill="#6366f1" stroke="#1e293b" stroke-width="1"/>
    <rect x="104" y="88" width="30" height="30" rx="2" fill="#4f46e5" stroke="#1e293b" stroke-width="1"/>
    <rect x="136" y="88" width="30" height="30" rx="2" fill="#818cf8" stroke="#1e293b" stroke-width="1"/>
    <rect x="168" y="88" width="30" height="30" rx="2" fill="#6366f1" stroke="#1e293b" stroke-width="1"/>
    <rect x="200" y="88" width="30" height="30" rx="2" fill="#4f46e5" stroke="#1e293b" stroke-width="1"/>
    <rect x="232" y="88" width="30" height="30" rx="2" fill="#818cf8" stroke="#1e293b" stroke-width="1"/>
    <rect x="264" y="88" width="30" height="30" rx="2" fill="#6366f1" stroke="#1e293b" stroke-width="1"/>
    <!-- Row 3 -->
    <rect x="40" y="120" width="30" height="30" rx="2" fill="#4f46e5" stroke="#1e293b" stroke-width="1"/>
    <rect x="72" y="120" width="30" height="30" rx="2" fill="#818cf8" stroke="#1e293b" stroke-width="1"/>
    <rect x="104" y="120" width="30" height="30" rx="2" fill="#6366f1" stroke="#1e293b" stroke-width="1"/>
    <rect x="136" y="120" width="30" height="30" rx="2" fill="#4f46e5" stroke="#1e293b" stroke-width="1"/>
    <rect x="168" y="120" width="30" height="30" rx="2" fill="#818cf8" stroke="#1e293b" stroke-width="1"/>
    <rect x="200" y="120" width="30" height="30" rx="2" fill="#6366f1" stroke="#1e293b" stroke-width="1"/>
    <rect x="232" y="120" width="30" height="30" rx="2" fill="#4f46e5" stroke="#1e293b" stroke-width="1"/>
    <rect x="264" y="120" width="30" height="30" rx="2" fill="#818cf8" stroke="#1e293b" stroke-width="1"/>
    <!-- Row 4 -->
    <rect x="40" y="152" width="30" height="30" rx="2" fill="#6366f1" stroke="#1e293b" stroke-width="1"/>
    <rect x="72" y="152" width="30" height="30" rx="2" fill="#4f46e5" stroke="#1e293b" stroke-width="1"/>
    <rect x="104" y="152" width="30" height="30" rx="2" fill="#818cf8" stroke="#1e293b" stroke-width="1"/>
    <rect x="136" y="152" width="30" height="30" rx="2" fill="#6366f1" stroke="#1e293b" stroke-width="1"/>
    <rect x="168" y="152" width="30" height="30" rx="2" fill="#4f46e5" stroke="#1e293b" stroke-width="1"/>
    <rect x="200" y="152" width="30" height="30" rx="2" fill="#818cf8" stroke="#1e293b" stroke-width="1"/>
    <rect x="232" y="152" width="30" height="30" rx="2" fill="#6366f1" stroke="#1e293b" stroke-width="1"/>
    <rect x="264" y="152" width="30" height="30" rx="2" fill="#4f46e5" stroke="#1e293b" stroke-width="1"/>
    <!-- Row 5 -->
    <rect x="40" y="184" width="30" height="30" rx="2" fill="#818cf8" stroke="#1e293b" stroke-width="1"/>
    <rect x="72" y="184" width="30" height="30" rx="2" fill="#6366f1" stroke="#1e293b" stroke-width="1"/>
    <rect x="104" y="184" width="30" height="30" rx="2" fill="#4f46e5" stroke="#1e293b" stroke-width="1"/>
    <rect x="136" y="184" width="30" height="30" rx="2" fill="#818cf8" stroke="#1e293b" stroke-width="1"/>
    <rect x="168" y="184" width="30" height="30" rx="2" fill="#6366f1" stroke="#1e293b" stroke-width="1"/>
    <rect x="200" y="184" width="30" height="30" rx="2" fill="#4f46e5" stroke="#1e293b" stroke-width="1"/>
    <rect x="232" y="184" width="30" height="30" rx="2" fill="#818cf8" stroke="#1e293b" stroke-width="1"/>
    <rect x="264" y="184" width="30" height="30" rx="2" fill="#6366f1" stroke="#1e293b" stroke-width="1"/>
  </g>
  <text font-family="'Inter', 'Segoe UI', sans-serif" font-size="11" fill="#94a3b8" x="160" y="232" text-anchor="middle">All 40 weights stored and computed</text>

  <!-- Divider -->
  <line x1="340" y1="20" x2="340" y2="270" stroke="#334155" stroke-width="0.5"/>

  <!-- RIGHT: Sparse matrix after pruning -->
  <text font-family="'Inter', 'Segoe UI', sans-serif" font-size="13" font-weight="500" fill="#f8fafc" x="510" y="30" text-anchor="middle">Sparse matrix after pruning</text>
  <text font-family="'Inter', 'Segoe UI', sans-serif" font-size="11" fill="#94a3b8" x="510" y="46" text-anchor="middle">~80% weights zeroed</text>

  <!-- 8x5 sparse grid, most dark (zero) -->
  <g>
    <!-- Row 1: positions 1,4,7 active -->
    <rect x="390" y="56" width="30" height="30" rx="2" fill="#4f46e5" stroke="#1e293b" stroke-width="1"/>
    <rect x="422" y="56" width="30" height="30" rx="2" fill="#334155" stroke="#1e293b" stroke-width="1"/>
    <rect x="454" y="56" width="30" height="30" rx="2" fill="#334155" stroke="#1e293b" stroke-width="1"/>
    <rect x="486" y="56" width="30" height="30" rx="2" fill="#6366f1" stroke="#1e293b" stroke-width="1"/>
    <rect x="518" y="56" width="30" height="30" rx="2" fill="#334155" stroke="#1e293b" stroke-width="1"/>
    <rect x="550" y="56" width="30" height="30" rx="2" fill="#334155" stroke="#1e293b" stroke-width="1"/>
    <rect x="582" y="56" width="30" height="30" rx="2" fill="#4f46e5" stroke="#1e293b" stroke-width="1"/>
    <rect x="614" y="56" width="30" height="30" rx="2" fill="#334155" stroke="#1e293b" stroke-width="1"/>
    <!-- Row 2: position 3 active -->
    <rect x="390" y="88" width="30" height="30" rx="2" fill="#334155" stroke="#1e293b" stroke-width="1"/>
    <rect x="422" y="88" width="30" height="30" rx="2" fill="#334155" stroke="#1e293b" stroke-width="1"/>
    <rect x="454" y="88" width="30" height="30" rx="2" fill="#818cf8" stroke="#1e293b" stroke-width="1"/>
    <rect x="486" y="88" width="30" height="30" rx="2" fill="#334155" stroke="#1e293b" stroke-width="1"/>
    <rect x="518" y="88" width="30" height="30" rx="2" fill="#334155" stroke="#1e293b" stroke-width="1"/>
    <rect x="550" y="88" width="30" height="30" rx="2" fill="#334155" stroke="#1e293b" stroke-width="1"/>
    <rect x="582" y="88" width="30" height="30" rx="2" fill="#334155" stroke="#1e293b" stroke-width="1"/>
    <rect x="614" y="88" width="30" height="30" rx="2" fill="#334155" stroke="#1e293b" stroke-width="1"/>
    <!-- Row 3: positions 2,6 active -->
    <rect x="390" y="120" width="30" height="30" rx="2" fill="#334155" stroke="#1e293b" stroke-width="1"/>
    <rect x="422" y="120" width="30" height="30" rx="2" fill="#6366f1" stroke="#1e293b" stroke-width="1"/>
    <rect x="454" y="120" width="30" height="30" rx="2" fill="#334155" stroke="#1e293b" stroke-width="1"/>
    <rect x="486" y="120" width="30" height="30" rx="2" fill="#334155" stroke="#1e293b" stroke-width="1"/>
    <rect x="518" y="120" width="30" height="30" rx="2" fill="#334155" stroke="#1e293b" stroke-width="1"/>
    <rect x="550" y="120" width="30" height="30" rx="2" fill="#4f46e5" stroke="#1e293b" stroke-width="1"/>
    <rect x="582" y="120" width="30" height="30" rx="2" fill="#334155" stroke="#1e293b" stroke-width="1"/>
    <rect x="614" y="120" width="30" height="30" rx="2" fill="#334155" stroke="#1e293b" stroke-width="1"/>
    <!-- Row 4: position 5 active -->
    <rect x="390" y="152" width="30" height="30" rx="2" fill="#334155" stroke="#1e293b" stroke-width="1"/>
    <rect x="422" y="152" width="30" height="30" rx="2" fill="#334155" stroke="#1e293b" stroke-width="1"/>
    <rect x="454" y="152" width="30" height="30" rx="2" fill="#334155" stroke="#1e293b" stroke-width="1"/>
    <rect x="486" y="152" width="30" height="30" rx="2" fill="#334155" stroke="#1e293b" stroke-width="1"/>
    <rect x="518" y="152" width="30" height="30" rx="2" fill="#818cf8" stroke="#1e293b" stroke-width="1"/>
    <rect x="550" y="152" width="30" height="30" rx="2" fill="#334155" stroke="#1e293b" stroke-width="1"/>
    <rect x="582" y="152" width="30" height="30" rx="2" fill="#334155" stroke="#1e293b" stroke-width="1"/>
    <rect x="614" y="152" width="30" height="30" rx="2" fill="#334155" stroke="#1e293b" stroke-width="1"/>
    <!-- Row 5: positions 1,8 active -->
    <rect x="390" y="184" width="30" height="30" rx="2" fill="#6366f1" stroke="#1e293b" stroke-width="1"/>
    <rect x="422" y="184" width="30" height="30" rx="2" fill="#334155" stroke="#1e293b" stroke-width="1"/>
    <rect x="454" y="184" width="30" height="30" rx="2" fill="#334155" stroke="#1e293b" stroke-width="1"/>
    <rect x="486" y="184" width="30" height="30" rx="2" fill="#334155" stroke="#1e293b" stroke-width="1"/>
    <rect x="518" y="184" width="30" height="30" rx="2" fill="#334155" stroke="#1e293b" stroke-width="1"/>
    <rect x="550" y="184" width="30" height="30" rx="2" fill="#334155" stroke="#1e293b" stroke-width="1"/>
    <rect x="582" y="184" width="30" height="30" rx="2" fill="#334155" stroke="#1e293b" stroke-width="1"/>
    <rect x="614" y="184" width="30" height="30" rx="2" fill="#4f46e5" stroke="#1e293b" stroke-width="1"/>
  </g>

  <!-- Legend -->
  <rect x="390" y="226" width="14" height="14" rx="2" fill="#4f46e5"/>
  <text font-family="'Inter', 'Segoe UI', sans-serif" font-size="11" fill="#94a3b8" x="408" y="238">Non-zero weight</text>
  <rect x="520" y="226" width="14" height="14" rx="2" fill="#334155"/>
  <text font-family="'Inter', 'Segoe UI', sans-serif" font-size="11" fill="#94a3b8" x="538" y="238">Zero (pruned)</text>

  <text font-family="'Inter', 'Segoe UI', sans-serif" font-size="11" fill="#94a3b8" x="340" y="270" text-anchor="middle">Same matrix shape — zero values don't save compute on GPUs without special support</text>
</svg>
