<svg width="100%" viewBox="0 0 680 400" xmlns="http://www.w3.org/2000/svg">
  <defs>
    <marker id="arrow" viewBox="0 0 10 10" refX="8" refY="5" markerWidth="6" markerHeight="6" orient="auto-start-reverse">
      <path d="M2 1L8 5L2 9" fill="none" stroke="context-stroke" stroke-width="1.5" stroke-linecap="round" stroke-linejoin="round"/>
    </marker>
  </defs>
  <!-- Background -->
  <rect width="680" height="400" fill="#1e293b"/>
  <!-- Axes -->
  <line x1="80" y1="340" x2="640" y2="340" stroke="#475569" stroke-width="0.5"/>
  <line x1="80" y1="40" x2="80" y2="340" stroke="#475569" stroke-width="0.5"/>
  <!-- Y-axis label -->
  <text font-family="'Inter', 'Segoe UI', sans-serif" font-size="11" fill="#94a3b8" transform="rotate(-90 22 190)" x="22" y="190" text-anchor="middle">Parameters (log scale)</text>
  <!-- Y-axis ticks and labels -->
  <text font-family="'Inter', 'Segoe UI', sans-serif" font-size="11" fill="#94a3b8" x="72" y="343" text-anchor="end">10⁶</text>
  <text font-family="'Inter', 'Segoe UI', sans-serif" font-size="11" fill="#94a3b8" x="72" y="283" text-anchor="end">10⁸</text>
  <text font-family="'Inter', 'Segoe UI', sans-serif" font-size="11" fill="#94a3b8" x="72" y="223" text-anchor="end">10¹⁰</text>
  <text font-family="'Inter', 'Segoe UI', sans-serif" font-size="11" fill="#94a3b8" x="72" y="163" text-anchor="end">10¹²</text>
  <text font-family="'Inter', 'Segoe UI', sans-serif" font-size="11" fill="#94a3b8" x="72" y="103" text-anchor="end">10¹⁴</text>
  <line x1="78" y1="340" x2="82" y2="340" stroke="#475569" stroke-width="0.5"/>
  <line x1="78" y1="280" x2="82" y2="280" stroke="#475569" stroke-width="0.5"/>
  <line x1="78" y1="220" x2="82" y2="220" stroke="#475569" stroke-width="0.5"/>
  <line x1="78" y1="160" x2="82" y2="160" stroke="#475569" stroke-width="0.5"/>
  <line x1="78" y1="100" x2="82" y2="100" stroke="#475569" stroke-width="0.5"/>
  <!-- Gridlines -->
  <line x1="80" y1="280" x2="640" y2="280" stroke="#334155" stroke-width="0.3" stroke-dasharray="3 3"/>
  <line x1="80" y1="220" x2="640" y2="220" stroke="#334155" stroke-width="0.3" stroke-dasharray="3 3"/>
  <line x1="80" y1="160" x2="640" y2="160" stroke="#334155" stroke-width="0.3" stroke-dasharray="3 3"/>
  <line x1="80" y1="100" x2="640" y2="100" stroke="#334155" stroke-width="0.3" stroke-dasharray="3 3"/>

  <!-- Trend line -->
  <polyline points="110,273 170,260 200,287 280,245 330,221 400,143 470,125 530,158 590,105"
    fill="none" stroke="#6366f1" stroke-width="1.5" stroke-dasharray="5 3" opacity="0.5"/>

  <!-- Bars -->
  <rect x="97" y="273" width="24" height="67" rx="3" fill="#818cf8"/>
  <rect x="157" y="260" width="24" height="80" rx="3" fill="#818cf8"/>
  <rect x="187" y="287" width="24" height="53" rx="3" fill="#818cf8"/>
  <rect x="267" y="245" width="24" height="95" rx="3" fill="#6366f1"/>
  <rect x="317" y="221" width="24" height="119" rx="3" fill="#6366f1"/>
  <rect x="387" y="143" width="24" height="197" rx="3" fill="#4f46e5"/>
  <rect x="457" y="125" width="24" height="215" rx="3" fill="#4f46e5"/>
  <rect x="517" y="158" width="24" height="182" rx="3" fill="#4f46e5"/>
  <rect x="577" y="105" width="24" height="235" rx="3" fill="#312e81"/>

  <!-- X labels -->
  <text font-family="'Inter', 'Segoe UI', sans-serif" font-size="11" fill="#94a3b8" x="109" y="358" text-anchor="middle">AlexNet</text>
  <text font-family="'Inter', 'Segoe UI', sans-serif" font-size="10" fill="#64748b" x="109" y="370" text-anchor="middle">2012</text>
  <text font-family="'Inter', 'Segoe UI', sans-serif" font-size="11" fill="#94a3b8" x="169" y="358" text-anchor="middle">VGG-16</text>
  <text font-family="'Inter', 'Segoe UI', sans-serif" font-size="10" fill="#64748b" x="169" y="370" text-anchor="middle">2014</text>
  <text font-family="'Inter', 'Segoe UI', sans-serif" font-size="11" fill="#94a3b8" x="199" y="358" text-anchor="middle">ResNet</text>
  <text font-family="'Inter', 'Segoe UI', sans-serif" font-size="10" fill="#64748b" x="199" y="370" text-anchor="middle">2015</text>
  <text font-family="'Inter', 'Segoe UI', sans-serif" font-size="11" fill="#94a3b8" x="279" y="358" text-anchor="middle">BERT</text>
  <text font-family="'Inter', 'Segoe UI', sans-serif" font-size="10" fill="#64748b" x="279" y="370" text-anchor="middle">2018</text>
  <text font-family="'Inter', 'Segoe UI', sans-serif" font-size="11" fill="#94a3b8" x="329" y="358" text-anchor="middle">GPT-2</text>
  <text font-family="'Inter', 'Segoe UI', sans-serif" font-size="10" fill="#64748b" x="329" y="370" text-anchor="middle">2019</text>
  <text font-family="'Inter', 'Segoe UI', sans-serif" font-size="11" fill="#94a3b8" x="399" y="358" text-anchor="middle">GPT-3</text>
  <text font-family="'Inter', 'Segoe UI', sans-serif" font-size="10" fill="#64748b" x="399" y="370" text-anchor="middle">2020</text>
  <text font-family="'Inter', 'Segoe UI', sans-serif" font-size="11" fill="#94a3b8" x="469" y="358" text-anchor="middle">PaLM</text>
  <text font-family="'Inter', 'Segoe UI', sans-serif" font-size="10" fill="#64748b" x="469" y="370" text-anchor="middle">2022</text>
  <text font-family="'Inter', 'Segoe UI', sans-serif" font-size="11" fill="#94a3b8" x="529" y="358" text-anchor="middle">LLaMA-2</text>
  <text font-family="'Inter', 'Segoe UI', sans-serif" font-size="10" fill="#64748b" x="529" y="370" text-anchor="middle">2023</text>
  <text font-family="'Inter', 'Segoe UI', sans-serif" font-size="11" fill="#94a3b8" x="589" y="358" text-anchor="middle">GPT-4*</text>
  <text font-family="'Inter', 'Segoe UI', sans-serif" font-size="10" fill="#64748b" x="589" y="370" text-anchor="middle">2023</text>

  <!-- Title -->
  <text font-family="'Inter', 'Segoe UI', sans-serif" font-size="13" font-weight="500" fill="#f8fafc" x="360" y="22" text-anchor="middle">Model parameter count over time (log scale)</text>
  <text font-family="'Inter', 'Segoe UI', sans-serif" font-size="10" fill="#94a3b8" x="360" y="390" text-anchor="middle">* GPT-4 parameter count unconfirmed; estimate shown</text>
</svg>
